<?xml version="1.0" standalone="no"?>
<!DOCTYPE svg PUBLIC "-//W3C//DTD SVG 20010904//EN"
 "http://www.w3.org/TR/2001/REC-SVG-20010904/DTD/svg10.dtd">
<svg version="1.0" xmlns="http://www.w3.org/2000/svg"
 width="256.000000pt" height="256.000000pt" viewBox="0 0 256.000000 256.000000"
 preserveAspectRatio="xMidYMid meet">
<metadata>
Created by potrace 1.16, written by Peter Selinger 2001-2019
</metadata>
<g transform="translate(0.000000,256.000000) scale(0.100000,-0.100000)"
fill="#000000" stroke="none">
<path d="M1028 2540 c-265 -56 -460 -161 -654 -355 -160 -160 -253 -311 -319
-517 -48 -152 -58 -239 -52 -441 4 -140 9 -189 29 -262 69 -251 186 -447 370
-622 178 -168 402 -283 639 -328 109 -20 369 -20 478 0 518 99 929 512 1027
1033 12 67 15 128 12 272 -4 160 -9 198 -31 282 -63 230 -168 411 -341 584
-197 196 -406 307 -675 358 -118 23 -368 20 -483 -4z m0 -539 l2 -474 -472 8
c-260 4 -474 8 -475 9 -2 1 6 34 18 72 11 38 21 74 21 81 1 7 4 10 7 8 4 -2
66 0 140 3 l134 7 -111 58 -110 59 30 51 c17 29 39 64 49 79 11 14 19 31 19
37 0 17 60 -9 317 -138 134 -66 245 -121 248 -121 3 0 5 157 5 349 l0 350 53
14 c75 22 90 25 107 23 13 -1 15 -63 18 -475z m596 462 c34 -9 67 -20 74 -26
9 -7 12 -90 12 -353 0 -189 2 -344 4 -344 3 0 127 61 277 135 149 74 274 135
278 135 3 0 14 -14 24 -32 18 -32 18 -32 -5 -50 -13 -10 -111 -63 -218 -118
l-195 -99 127 -1 128 0 118 55 c65 30 123 55 129 55 16 0 112 -265 100 -276
-1 -1 -215 -5 -474 -9 l-473 -8 0 470 c0 258 3 473 7 476 9 10 20 9 87 -10z
m-604 -1909 c0 -448 -1 -475 -17 -470 -10 2 -46 12 -79 21 -56 15 -63 20 -68
47 -3 17 -6 174 -6 349 0 176 -2 319 -5 319 -3 0 -96 -46 -208 -102 -111 -55
-236 -116 -277 -134 l-74 -32 -19 30 c-12 20 -15 34 -8 41 5 5 105 58 223 118
l213 108 -136 1 -137 0 -113 -55 c-63 -30 -119 -55 -124 -55 -11 0 -77 160
-89 215 -4 17 -9 38 -12 47 -7 22 18 24 529 26 l407 2 0 -476z m1455 464 c4
-3 -4 -42 -16 -86 -20 -67 -27 -80 -44 -79 -11 0 -76 0 -145 -2 l-125 -2 108
-56 c60 -30 111 -61 113 -68 5 -12 -85 -175 -97 -175 -3 0 -128 61 -278 135
-150 74 -275 135 -277 135 -2 0 -4 -123 -4 -273 0 -151 -3 -308 -6 -349 l-7
-76 -74 -22 c-41 -12 -77 -19 -81 -15 -9 8 -16 910 -8 932 5 13 61 15 470 11
255 -1 467 -6 471 -10z"/>
</g>
</svg>
